<?xml version="1.0" standalone="no"?>
<!DOCTYPE svg PUBLIC "-//W3C//DTD SVG 20010904//EN"
 "http://www.w3.org/TR/2001/REC-SVG-20010904/DTD/svg10.dtd">
<svg version="1.0" xmlns="http://www.w3.org/2000/svg"
 width="3840.000000pt" height="2160.000000pt" viewBox="0 0 3840.000000 2160.000000"
 preserveAspectRatio="xMidYMid meet">

<g transform="translate(0.000000,2160.000000) scale(0.100000,-0.100000)"
fill="#000000" stroke="none">
<path d="M10730 10795 l0 -10145 8470 0 8470 0 0 10145 0 10145 -8470 0 -8470
0 0 -10145z m2571 3688 c71 -75 77 -162 30 -399 -42 -212 -54 -303 -49 -388 3
-70 6 -78 38 -112 40 -41 102 -73 142 -74 38 0 122 33 164 65 102 78 110 266
20 470 -14 30 -22 55 -19 55 17 0 77 -47 113 -87 85 -97 132 -244 151 -471 16
-210 12 -233 -70 -354 -170 -254 -223 -438 -147 -517 15 -16 44 -36 65 -45 35
-17 39 -16 94 4 87 33 138 76 164 140 27 66 28 114 7 240 -23 140 -22 226 4
277 19 36 85 103 103 103 4 0 0 -21 -9 -47 -10 -32 -15 -86 -15 -163 0 -131 8
-160 78 -280 73 -125 89 -185 90 -330 0 -95 -4 -137 -18 -176 -27 -78 -74
-142 -133 -181 -30 -20 -56 -43 -58 -52 -3 -9 -57 -205 -121 -436 -64 -231
-118 -428 -121 -437 -5 -17 -27 -18 -282 -18 l-277 0 -19 -137 c-10 -76 -42
-313 -71 -528 -30 -214 -113 -820 -185 -1345 -71 -525 -133 -972 -136 -992 -5
-36 -9 -39 -132 -101 -254 -128 -489 -292 -740 -515 -46 -41 -85 -72 -87 -71
-1 2 48 661 110 1464 63 803 123 1583 134 1734 14 189 24 278 33 286 7 7 83
54 168 105 85 51 157 95 159 97 3 2 -239 3 -538 2 -298 -1 -544 1 -546 3 -3 2
41 121 96 264 162 419 199 564 199 780 0 120 -18 237 -51 331 -28 79 -35 200
-16 288 16 74 87 275 97 275 3 0 5 -19 4 -42 -2 -67 13 -185 31 -238 18 -55
73 -110 109 -110 44 0 115 32 152 68 106 103 139 331 73 506 -20 54 -52 95
-204 256 -71 76 -78 93 -20 44 28 -22 106 -82 175 -131 69 -50 145 -112 168
-137 56 -61 107 -169 122 -259 24 -139 -4 -364 -66 -524 -111 -289 -111 -354
0 -404 105 -48 225 6 275 121 36 83 43 145 43 373 -1 121 1 217 4 214 3 -2 9
-32 14 -65 29 -177 107 -362 194 -458 68 -76 132 -109 207 -109 133 1 212 117
225 330 11 161 -46 414 -119 534 -63 104 -99 211 -104 317 -10 163 27 272 175
516 39 65 78 141 87 168 28 84 21 198 -21 333 -5 16 -3 17 13 9 10 -6 30 -23
44 -39z m9165 -188 c45 -96 32 -203 -56 -468 -67 -199 -19 -368 112 -396 111
-24 253 57 288 165 31 94 -19 241 -129 372 -34 39 -58 72 -54 72 20 0 147 -86
205 -139 115 -106 180 -225 181 -336 0 -48 -7 -77 -37 -144 -101 -229 -145
-376 -153 -511 -7 -116 6 -171 52 -217 27 -27 41 -33 77 -33 51 0 87 30 107
89 15 47 14 164 -4 240 -9 35 -13 66 -11 69 6 6 62 -33 104 -72 95 -88 105
-221 27 -354 -51 -87 -130 -273 -159 -377 -20 -68 -73 -440 -212 -1490 -102
-769 -187 -1402 -190 -1406 -2 -4 -28 -1 -57 7 -66 17 -330 61 -422 69 -38 4
-72 8 -74 11 -3 3 13 347 24 489 2 33 7 107 10 165 3 58 8 120 11 138 l5 33
-131 -2 c-84 -2 -133 -6 -136 -13 -3 -9 -60 -494 -81 -688 -3 -32 -7 -58 -8
-58 -1 0 -60 9 -131 19 -71 11 -194 25 -274 32 -80 6 -151 13 -158 15 -9 3
-11 17 -7 51 3 27 39 476 80 998 108 1385 102 1319 129 1425 43 170 59 201
174 338 137 165 177 228 209 330 23 76 25 93 20 200 -4 84 -14 151 -36 236
-17 66 -29 121 -27 123 4 5 94 -195 116 -262 28 -82 50 -213 50 -299 -1 -127
-16 -196 -80 -345 -86 -202 -111 -311 -90 -389 13 -52 42 -72 100 -72 105 0
139 61 101 177 -18 53 -19 68 -9 74 21 14 60 10 105 -11 101 -45 118 -178 43
-338 -21 -44 -33 -91 -40 -151 -5 -47 -37 -308 -70 -578 -33 -271 -60 -497
-60 -503 0 -6 49 -10 129 -10 l128 0 6 73 c4 39 27 398 52 797 l46 725 49 105
c105 226 142 360 144 520 1 147 -21 230 -86 315 -113 150 -176 312 -185 476
-8 146 18 237 103 347 49 65 121 217 129 275 10 65 -2 129 -31 172 -35 52 -30
55 17 10 23 -22 52 -62 65 -90z m-7204 -216 c19 -69 23 -109 23 -229 0 -126
-3 -151 -21 -190 l-20 -45 -29 45 c-77 121 -84 218 -30 374 19 55 35 113 35
130 1 45 14 18 42 -85z m9535 -61 c63 -83 77 -116 77 -183 0 -55 -4 -66 -47
-132 -26 -39 -67 -115 -90 -167 -24 -53 -48 -100 -52 -104 -12 -11 2 261 20
383 17 108 16 241 0 279 -15 35 47 -16 92 -76z m1098 -173 c4 -33 12 -69 17
-80 19 -38 73 -87 138 -125 260 -153 352 -499 216 -807 -77 -174 -104 -285
-86 -352 12 -47 43 -68 105 -71 80 -4 95 0 134 35 93 84 112 234 51 398 -40
109 -38 133 24 247 l46 85 -3 -115 c-2 -111 -1 -118 29 -181 18 -37 53 -97 78
-134 25 -37 47 -76 47 -86 1 -11 2 -25 3 -31 4 -29 -45 -219 -85 -333 -61
-173 -38 -288 71 -362 42 -29 94 -29 144 0 53 30 79 83 86 177 l6 75 22 -46
c50 -105 53 -255 12 -449 -33 -149 -33 -168 -11 -285 58 -315 70 -533 36 -690
-35 -168 -42 -178 -471 -718 l-395 -498 56 -282 c31 -155 119 -590 196 -967
77 -376 138 -688 137 -692 -2 -4 -70 51 -153 123 -245 213 -438 358 -640 483
-60 38 -126 78 -145 91 l-36 23 -99 421 c-54 231 -100 419 -101 418 -1 -1 -24
-151 -50 -332 -26 -182 -50 -334 -54 -338 -4 -4 -40 11 -81 34 -100 57 -273
140 -416 198 l-118 49 3 38 c1 22 52 593 112 1269 60 677 112 1257 114 1290 3
33 13 137 22 232 l16 172 -26 52 c-69 139 -1 314 165 425 77 51 93 75 103 149
7 45 -15 237 -31 283 -9 25 74 -56 100 -98 20 -32 22 -48 22 -190 0 -137 3
-160 22 -202 30 -66 58 -82 118 -68 67 15 104 45 134 109 24 51 26 67 26 181
-1 134 -20 249 -76 447 -16 57 -29 128 -29 157 0 120 48 286 114 395 46 75 96
144 102 138 2 -2 -5 -25 -17 -51 -32 -73 -69 -232 -69 -299 0 -149 65 -220
214 -234 164 -15 256 74 257 249 0 122 -27 215 -146 498 -25 57 -27 73 -22
140 3 41 11 93 18 115 l12 40 13 -30 c7 -16 15 -57 19 -90z m-6683 40 c73 -57
139 -140 183 -230 56 -113 69 -180 69 -345 0 -168 -25 -317 -73 -423 -79 -175
-105 -307 -77 -382 27 -69 100 -103 182 -85 87 20 112 100 94 304 -33 369 -25
458 50 537 22 23 42 40 45 38 2 -3 -9 -46 -25 -96 -36 -118 -54 -229 -46 -287
6 -36 19 -59 61 -107 95 -109 132 -216 115 -326 -12 -70 -56 -164 -112 -234
l-41 -52 7 -86 c3 -47 10 -176 16 -286 6 -110 38 -636 70 -1170 32 -533 56
-973 54 -977 -3 -4 -137 -7 -298 -8 l-294 -1 -5 23 c-3 13 -22 146 -44 295
l-38 273 -282 0 -282 0 -10 -52 c-6 -29 -31 -163 -56 -297 -24 -134 -47 -246
-49 -249 -3 -2 -94 -4 -203 -4 -109 0 -252 -6 -318 -13 -66 -8 -121 -12 -123
-10 -2 2 79 448 181 992 102 543 198 1052 212 1129 14 78 30 156 35 173 7 26
3 43 -26 104 -40 85 -58 173 -50 240 8 55 39 143 60 173 13 17 14 11 9 -52
-10 -126 27 -184 118 -184 40 0 55 5 81 29 l33 29 0 99 c-1 86 -4 105 -28 153
-14 30 -37 68 -49 83 -19 24 -23 40 -22 96 1 37 6 77 12 87 11 18 11 17 12 -6
0 -41 44 -121 104 -190 86 -100 92 -117 78 -230 -31 -246 5 -382 107 -410 50
-13 127 9 163 47 99 105 73 393 -73 805 -78 221 -75 401 10 573 37 75 142 214
167 222 8 3 7 -14 -3 -54 -8 -32 -15 -107 -16 -168 -1 -120 16 -179 66 -229
91 -91 258 -19 321 140 36 88 42 172 22 275 -20 96 -92 257 -149 332 -21 26
-37 50 -37 52 0 9 32 -12 92 -60z m4547 -615 c13 -25 67 -90 121 -146 83 -85
105 -115 143 -195 63 -130 79 -198 86 -374 7 -159 12 -177 61 -219 42 -35 100
-49 185 -44 130 7 233 76 277 187 31 80 31 235 -1 345 -35 120 -28 177 36 310
54 109 69 130 52 74 -5 -18 -9 -70 -9 -116 0 -98 18 -155 108 -342 64 -132
102 -235 102 -272 0 -33 -48 -111 -118 -194 l-60 -72 -42 -328 c-22 -180 -43
-331 -46 -334 -3 -3 -155 -3 -338 -1 l-331 3 -33 -278 c-18 -154 -36 -298 -39
-321 l-6 -43 57 0 c112 0 156 38 156 135 0 69 22 180 43 222 17 31 83 103 96
103 4 0 2 -23 -5 -50 -32 -123 -27 -215 13 -255 22 -23 98 -20 123 5 31 31 34
63 11 125 -12 31 -21 68 -21 82 0 38 23 143 31 143 9 0 19 -38 19 -73 0 -20
15 -44 50 -81 54 -57 75 -97 85 -166 6 -45 -16 -293 -58 -650 l-22 -185 -341
-3 -340 -2 -23 -213 c-12 -116 -24 -226 -27 -243 l-6 -32 72 -16 c40 -9 181
-39 313 -67 133 -27 242 -51 243 -52 1 -1 -9 -90 -21 -197 -13 -107 -26 -224
-29 -260 -12 -124 -39 -365 -41 -368 -2 -2 -40 12 -84 32 -263 116 -726 270
-1041 347 -96 23 -176 43 -178 45 -3 1 93 1288 151 2039 l12 160 125 62 125
62 -157 0 c-86 1 -159 4 -161 9 -4 6 91 283 177 516 l33 89 -33 55 c-47 77
-57 116 -51 183 4 43 15 77 43 126 84 149 89 164 89 238 0 38 -4 84 -8 100
l-8 30 41 -40 c50 -47 90 -126 90 -176 0 -22 -12 -61 -30 -94 -16 -31 -30 -67
-30 -80 0 -31 35 -72 83 -96 80 -42 231 -1 297 79 98 119 73 354 -68 634 -43
86 -47 98 -47 168 0 62 6 90 35 162 l35 87 6 -117 c4 -96 9 -125 28 -162z
m-7066 240 c133 -41 239 -140 288 -269 33 -87 36 -218 9 -366 -27 -143 -31
-270 -11 -308 30 -57 134 -60 195 -7 55 49 79 117 85 250 l6 114 33 -39 c69
-85 78 -115 72 -265 -10 -292 -6 -391 17 -442 27 -60 71 -88 136 -88 96 0 144
52 133 144 -3 28 -27 114 -52 191 -53 161 -65 249 -41 308 9 20 20 37 24 37 4
0 8 -39 8 -88 0 -77 4 -95 31 -153 18 -36 64 -115 104 -174 153 -228 185 -345
140 -521 -20 -79 -82 -221 -120 -275 -19 -26 -20 -34 -10 -91 17 -90 14 -280
-5 -372 -32 -154 -91 -290 -193 -442 -59 -87 -222 -279 -261 -306 -18 -13 -10
-30 184 -368 112 -195 203 -356 202 -356 -1 -1 -72 -4 -157 -7 -183 -7 -374
-29 -502 -57 -51 -11 -95 -17 -99 -12 -4 4 -67 108 -139 232 -238 406 -218
375 -224 349 -3 -13 -24 -152 -46 -309 -22 -157 -43 -294 -45 -305 -4 -22 21
-16 -439 -96 -93 -16 -171 -27 -173 -25 -3 2 46 584 108 1293 l112 1288 31 55
c44 76 80 162 102 245 15 56 19 104 19 235 0 99 -5 181 -12 204 -7 22 -11 42
-9 44 2 2 25 -31 51 -73 44 -71 48 -82 61 -185 19 -155 51 -221 114 -235 63
-14 130 45 165 144 25 72 15 261 -16 296 -5 5 -9 16 -9 25 0 9 -21 49 -46 90
l-46 75 4 91 c3 77 9 101 36 156 31 64 85 129 68 83 -14 -39 -26 -118 -26
-177 0 -157 94 -197 198 -84 58 64 76 118 70 208 -7 120 -87 226 -235 313
l-78 45 62 0 c33 0 90 -9 126 -20z m4036 -224 c11 -32 52 -115 90 -185 115
-209 141 -320 114 -491 -17 -113 -19 -245 -2 -298 23 -79 72 -96 191 -68 76
18 121 50 155 111 26 47 28 57 27 160 -2 89 -8 133 -34 230 -38 142 -37 200 5
294 34 74 59 101 47 50 -4 -19 -7 -65 -6 -104 1 -72 3 -78 98 -304 49 -119 62
-203 48 -316 -21 -158 -51 -233 -158 -393 -98 -145 -162 -290 -197 -447 l-14
-60 -196 -3 c-154 -2 -197 0 -197 10 0 7 7 63 15 123 8 61 15 111 15 113 0 1
-17 -5 -37 -13 -152 -64 -176 -250 -59 -458 20 -36 81 -113 136 -171 186 -198
233 -264 278 -385 48 -131 36 -366 -27 -529 -10 -26 -91 -159 -181 -295 l-163
-248 -41 5 c-23 3 -86 8 -141 11 -148 8 -246 15 -280 20 -16 2 -95 7 -175 11
-80 3 -147 8 -149 10 -3 2 40 48 94 102 251 249 377 474 377 678 0 136 -31
214 -108 274 -75 58 -227 222 -279 300 -84 126 -125 253 -125 387 0 115 14
172 71 291 45 94 62 116 168 226 151 156 231 258 276 348 52 106 59 170 44
369 -13 173 -8 232 25 309 16 40 105 164 112 157 2 -2 -5 -42 -16 -88 -48
-204 -48 -303 1 -351 48 -48 138 -29 209 46 31 33 35 43 38 105 4 75 -13 153
-53 231 -41 81 -56 142 -57 225 -1 147 23 247 33 140 4 -38 16 -96 28 -129z
m-2312 -116 c22 -46 26 -74 24 -169 -1 -61 -11 -58 -30 9 -7 25 -26 74 -42
109 -35 77 -36 108 -6 164 l22 42 5 -55 c3 -30 15 -75 27 -100z m-2947 -26
c25 -97 25 -196 1 -299 -51 -218 -26 -389 65 -445 65 -41 171 -15 235 58 71
81 105 216 80 322 -5 24 -8 47 -5 49 10 11 86 -88 119 -155 65 -132 68 -287
10 -484 -18 -62 -74 -448 -210 -1445 -102 -748 -187 -1374 -190 -1391 -5 -27
-11 -33 -43 -39 -78 -14 -312 -75 -432 -113 -69 -22 -126 -39 -128 -37 -1 1 6
132 17 291 11 159 23 330 26 379 3 50 8 119 11 155 15 172 19 262 14 265 -13
8 -314 7 -317 -2 -1 -4 -45 -284 -97 -622 -53 -338 -98 -616 -101 -619 -3 -4
-46 -14 -95 -24 -123 -25 -275 -76 -421 -142 -68 -31 -126 -56 -129 -56 -3 0
-4 17 -3 38 2 20 41 676 88 1457 46 781 87 1452 89 1490 9 123 46 225 171 475
93 186 124 267 140 357 16 92 8 128 -49 236 -45 84 -66 147 -48 147 18 0 82
-83 112 -145 60 -123 91 -319 70 -446 -13 -85 -16 -209 -5 -261 33 -157 189
-188 256 -51 34 68 34 197 0 305 -22 70 -23 81 -11 136 13 63 57 153 78 160 9
3 10 -3 1 -25 -5 -15 -13 -64 -16 -109 -8 -110 17 -189 98 -314 96 -147 114
-191 114 -280 0 -52 -8 -101 -27 -160 -21 -68 -38 -193 -88 -625 -34 -297 -64
-557 -67 -577 l-6 -38 147 0 146 0 0 28 c1 15 31 446 69 957 l68 930 85 200
c126 296 157 408 144 524 -8 74 8 48 34 -55z"/>
<path d="M25606 11658 c-4 -35 -52 -440 -107 -900 -54 -461 -99 -843 -99 -849
0 -17 118 80 225 186 211 209 360 441 421 655 23 81 26 105 22 194 -6 128 -40
219 -136 366 -52 80 -244 328 -312 403 -4 5 -10 -20 -14 -55z"/>
<path d="M18766 11147 c-77 -320 -141 -588 -144 -595 -3 -10 44 -12 232 -12
130 1 236 2 236 3 0 14 -181 1181 -183 1183 -2 2 -65 -259 -141 -579z"/>
<path d="M16722 11728 c-3 -41 -130 -1140 -137 -1192 l-6 -38 33 20 c61 39
157 132 217 212 232 309 253 676 50 903 -41 47 -137 127 -151 127 -2 0 -5 -14
-6 -32z"/>
</g>
</svg>
